# xmcd
# 
# Track frame offsets:
#     150
#     17052
#     36750
#     59950
#     79877
#     95950
#     116785
#     133820
#     153892
#     168832
#     181285
#     197707
#     220420
#     247500
#     276740
#     300792
# 
# Disc length: 4354
# 
# Revision: 1
# Processed by: cddbd v1.5.1PL0 Copyright (c) Steve Scherf et al.
# Submitted via: BonkEnc v1.0beta3
# 
DISCID=e4110010
DTITLE=Various Artist - The Stockfisch Selection 2002
DYEAR=1900
DGENRE=Audiophile
TTITLE0=Steve Strauss - Mr.Bones
TTITLE1=Steve Strauss - Argyle Bridge
TTITLE2=Steve Strauss - Two By Two
TTITLE3=Sara K. - Turned My Upside Down
TTITLE4=Sara K. - The Painter
TTITLE5=Sara K. - In The Fall
TTITLE6=Allan Taylor - Wheel Of Fortune
TTITLE7=Allan Taylor - Colour To The Moon
TTITLE8=Allan Taylor - Cold Hard Town
TTITLE9=Paul Stephenson - No Lie
TTITLE10=Paul Stephenson - As Long As The River
TTITLE11=Peter Ratzenbeck - Fraunz Bodschengls
TTITLE12=David Munyon - The Pirate Song
TTITLE13=David Munyon - Save The Whales
TTITLE14=David Munyon - N.Y.C.
TTITLE15=Chris Jones - Lang After You're Gone
EXTD=erworben beim Live Konzert in Kreuzberg Sara K.
EXTT0=
EXTT1=
EXTT2=
EXTT3=
EXTT4=
EXTT5=
EXTT6=
EXTT7=
EXTT8=
EXTT9=
EXTT10=
EXTT11=
EXTT12=
EXTT13=
EXTT14=
EXTT15=
PLAYORDER=
